<svg xmlns="http://www.w3.org/2000/svg" xml:space="preserve" width="1000px" height="440.51px" x="0px" y="0px" viewBox="0 0 1000 440.51"><path fill="#6B6B6B" d="M604.796 76.667h-65.794V361.43h202.08v-55.451H604.796zM885.818 252.892h53.556v49.789c-9.865 3.776-29.111 7.538-47.438 7.538-59.227 0-78.965-30.101-78.965-91.175 0-58.27 18.792-92.58 78.005-92.58 32.913 0 51.692 10.34 67.193 30.083l40.908-37.597c-24.929-35.697-68.632-46.516-109.517-46.516-92.094 0-140.506 50.274-140.506 146.135 0 95.409 43.703 147.095 140.042 147.095 44.173 0 87.415-11.283 110.903-27.719v-138.16H885.818v53.107z"/><path fill="#A50034" d="M220.278 440.51c121.658 0 220.277-98.669 220.277-220.279C440.556 98.569 341.937 0 220.278 0 98.63 0 0 98.569 0 220.231 0 341.841 98.63 440.51 220.278 440.51"/><path fill="#FFF" d="M211.528 123.568v193.08h61.364v-17.219h-43.864V123.568zM149.958 176.283c14.614 0 26.45-11.851 26.45-26.39 0-14.584-11.835-26.431-26.45-26.431-14.522 0-26.371 11.847-26.371 26.431-.001 14.539 11.849 26.39 26.371 26.39"/><path fill="#FFF" d="M229.028 35.948c-2.226-.093-6.617-.148-8.75-.148-101.596 0-184.305 82.729-184.305 184.379 0 49.221 19.099 95.523 53.885 130.311 34.914 34.864 81.23 54.006 130.419 54.006 49.202 0 95.517-19.142 130.41-54.006 34.794-34.788 53.902-81.09 53.902-130.311v-8.409l-7.365.038h-124.22v17.127H387.09v2.479c-5.864 86.928-78.438 155.875-166.812 155.875-44.61 0-86.548-17.382-118.143-48.942-31.596-31.546-48.982-73.518-48.982-118.167 0-44.643 17.387-86.615 48.982-118.175C133.73 70.4 175.667 53.022 220.278 53.022c2.025 0 6.737.051 8.75.106v-17.18z"/></svg>